# AST/ASF file generated using VICON BodyLanguage
# -----------------------------------------------
:version 1.10
:name VICON
:units
  mass 1.0
  length 0.45
  angle deg
:documentation
   .ast/.asf automatically generated from VICON data using
   VICON BodyBuilder and BodyLanguage model FoxedUp or BRILLIANT.MOD
:root
   order TX TY TZ RX RY RZ
   axis XYZ
   position 0 0 0  
   orientation 0 0 0 
:bonedata
  begin
     id 1 
     name lhipjoint
     direction 0.547975 -0.797114 0.253638 
     length 2.36201 
     axis 0 0 0  XYZ
  end
  begin
     id 2 
     name lfemur
     direction 0.34202 -0.939693 0  
     length 7.69075  
     axis 0 0 20  XYZ
    dof rx ry rz
    limits (-160.0 20.0)
           (-70.0 70.0)
           (-60.0 70.0)
  end
  begin
     id 3 
     name ltibia
     direction 0.34202 -0.939693 0   
     length 7.91399   
     axis 0 0 20   XYZ
    dof rx
    limits (-10.0 170.0)
  end
  begin
     id 4 
     name lfoot
     direction 0.0705293 -0.193778 0.978507   
     length 2.13618   
     axis -90 7.62852e-016 20   XYZ
    dof rx rz
    limits (-45.0 90.0)
           (-70.0 20.0)
  end
  begin
     id 5 
     name ltoes
     direction 1.53592e-011 -4.21925e-011 1   
     length 1.07518   
     axis -90 7.62852e-016 20   XYZ
    dof rx
    limits (-90.0 20.0)
  end
  begin
     id 6 
     name rhipjoint
     direction -0.57 -0.782963 0.249136   
     length 2.4047  
     axis 0 0 0  XYZ 
  end
  begin
     id 7 
     name rfemur
     direction -0.34202 -0.939693 0   
     length 7.51486   
     axis 0 0 -20   XYZ
    dof rx ry rz
    limits (-160.0 20.0)
           (-70.0 70.0)
           (-70.0 60.0)
  end
  begin
     id 8 
     name rtibia
     direction -0.34202 -0.939693 0   
     length 8.08317   
     axis 0 0 -20   XYZ
    dof rx
    limits (-10.0 170.0)
 end
 begin
     id 9 
     name rfoot
     direction -0.104954 -0.281256 0.953876   
     length 2.30343  
     axis -90 -7.62852e-016 -20   XYZ
    dof rx rz
    limits (-45.0 90.0)
           (-20.0 70.0)
  end
  begin
     id 10 
     name rtoes
     direction -1.53556e-011 -4.21922e-011 1   
     length 1.14803   
     axis -90 -7.62852e-016 -20   XYZ
    dof rx
    limits (-90.0 20.0)
  end
  begin
     id 11 
     name lowerback
     direction -0.0152855 0.99353 -0.11254   
     length 2.05311   
     axis 0 0 0   XYZ
    dof rx ry rz
    limits (-20.0 45.0)
           (-30.0 30.0)
           (-30.0 30.0)
  end
  begin
     id 12 
     name upperback
     direction -0.00157509 0.999443 -0.033332   
     length 2.06353   
     axis 0 0 0   XYZ
    dof rx ry rz
    limits (-20.0 45.0)
           (-30.0 30.0)
           (-30.0 30.0)
  end
  begin
     id 13 
     name thorax
     direction 0.00577788 0.999804 0.0189484   
     length 2.08472   
     axis 0 0 0   XYZ
    dof rx ry rz
    limits (-20.0 45.0)
           (-30.0 30.0)
           (-30.0 30.0)
  end
  begin
     id 14 
     name lowerneck
     direction -1.09301e-005 0.994719 0.10264   
     length 1.76249   
     axis 0 0 0   XYZ
    dof rx ry rz
    limits (-20.0 45.0)
           (-30.0 30.0)
           (-30.0 30.0)
  end
  begin
     id 15 
     name upperneck
     direction 0.0495018 0.988526 -0.142706   
     length 1.77897   
     axis 0 0 0   XYZ
    dof rx ry rz
    limits (-20.0 45.0)
           (-30.0 30.0)
           (-30.0 30.0)
  end
  begin
     id 16
     name head
     direction 0.0142736 0.998114 -0.0597101  
     length 1.78934  
     axis 0 0 0   XYZ
    dof rx ry rz
    limits (-20.0 45.0)
           (-30.0 30.0)
           (-30.0 30.0)
  end
  begin
     id 17 
     name lclavicle
     direction 0.918111 0.396107 -0.0130883  
     length 3.37276  
     axis 0 0 0   XYZ
    dof ry rz
    limits (-20.0 10.0)
           (0.0 20.0)
  end
  begin
     id 18 
     name lhumerus
     direction 1 -4.48975e-011 -3.26108e-027   
     length 5.34298   
     axis 180 -30 -90   XYZ
    dof rx ry rz
    limits (-60.0 90.0)
           (-90.0 90.0)
           (-90.0 90.0)
  end
  begin
     id 19
     name lradius
     direction 1 -4.48964e-011 -8.84413e-028   
     length 3.67262   
     axis 180 -30 -90   XYZ
    dof rx
    limits (-10.0 170.0)
  end
  begin
     id 20
     name lwrist
     direction 1 -4.48991e-011 -1.24264e-027   
     length 1.83631   
     axis -2.17013e-015 90 90   XYZ
    dof ry
    limits (-180.0 0.0)
 end
  begin
     id 21 
     name lhand
     direction 1 -4.48855e-011 -2.48528e-027   
     length 0.599298   
     axis 1.58582e-015 90 90   XYZ
    dof rx rz
    limits (-90.0 90.0)
           (-45.0 45.0)
  end
  begin
     id 22 
     name lfingers
     direction 1 -4.48811e-011 -4.97056e-027   
     length 0.48317   
     axis 3.17164e-015 90 90   XYZ
    dof rx
    limits (0.0 90.0)
  end
  begin
     id 23
     name lthumb
     direction 0.707107 -6.34882e-011 0.707107   
     length 0.693738   
     axis -90 45 2.85299e-015   XYZ
    dof rx rz
    limits (-45.0 45.0)
           (-45.0 45.0)
  end
  begin
     id 24 
     name rclavicle
     direction -0.920511 0.384752 -0.0680135   
     length 3.43787  
     axis 0 0 0   XYZ 
    dof ry rz
    limits (-10.0 20.0)
           (-20.0 0.0)
  end
  begin
     id 25 
     name rhumerus
     direction -0.999976 -0.00330524 0.00603274  
     length 5.5498   
     axis 180 30 90   XYZ
    dof rx ry rz
    limits (-90.0 60.0)
           (-90.0 90.0)
           (-90.0 90.0)
  end
  begin
     id 26 
     name rradius
     direction -1 -4.48967e-011 8.62438e-027   
     length 3.69401   
     axis 180 30 90   XYZ
    dof rx
    limits (-10.0 170.0)
  end
  begin
     id 27 
     name rwrist
     direction -1 -4.4897e-011 9.54866e-027   
     length 1.84701   
     axis -7.69462e-015 -90 -90   XYZ
    dof ry
    limits (-180.0 0.0)
  end
  begin
     id 28
     name rhand
     direction -1 -4.48982e-011 1.90973e-026   
     length 0.638113   
     axis -1.21857e-014 -90 -90   XYZ
    dof rx rz
    limits (-90.0 90.0)
           (-45.0 45.0)
  end
  begin
     id 29
     name rfingers
     direction -1 -4.48936e-011 3.81946e-026   
     length 0.514463   
     axis -2.43714e-014 -90 -90   XYZ
    dof rx
    limits (0.0 90.0)
  end
  begin
     id 30
     name rthumb
     direction -0.707107 -6.34942e-011 0.707107   
     length 0.738669   
     axis -90 -45 -2.85299e-015   XYZ
    dof rx rz
    limits (-45.0 45.0)
           (-45.0 45.0)
  end
:hierarchy
  begin
    root lhipjoint rhipjoint lowerback
    lhipjoint lfemur
    lfemur ltibia
    ltibia lfoot
    lfoot ltoes
    rhipjoint rfemur
    rfemur rtibia
    rtibia rfoot
    rfoot rtoes
    lowerback upperback
    upperback thorax
    thorax lowerneck lclavicle rclavicle
    lowerneck upperneck
    upperneck head
    lclavicle lhumerus
    lhumerus lradius
    lradius lwrist
    lwrist lhand lthumb
    lhand lfingers
    rclavicle rhumerus
    rhumerus rradius
    rradius rwrist
    rwrist rhand rthumb
    rhand rfingers
  end

#!OML:ASF F:\twosubjects\two\Thursday\Session 1\Rory.ASF
:FULLY-SPECIFIED
:DEGREES
135
root 9.27498 13.4909 5.07716 -124.65 -85.6347 106.383
lowerback 39.4205 1.46421 0.986688
upperback 13.9208 0.062147 -0.938786
thorax -3.68011 -0.74237 -1.46605
lowerneck -17.8238 -1.72147 -4.63801
upperneck 19.4769 -2.14436 4.15932
head 9.15912 -0.923699 1.91288
rclavicle -1.21259e-014 0
rhumerus 1.90645 19.3838 -82.5084
rradius 61.0577
rwrist 10.3329
rhand -31.7896 36.3635
rfingers 7.12502
rthumb -5.04554 6.44355
lclavicle -1.21259e-014 0
lhumerus 7.07431 -34.0276 75.1407
lradius 56.1776
lwrist -24.7649
lhand -23.5051 33.7024
lfingers 7.12502
lthumb 2.95536 63.6616
rfemur -51.626 -7.75729 7.2504
rtibia 65.2142
rfoot 8.39608 -6.62342
rtoes 8.10653
lfemur -49.2453 6.59131 -13.7845
ltibia 60.2653
lfoot 9.8211 3.59824
ltoes 30.1717
136
root 9.27089 13.4696 5.07924 -123.74 -85.6536 105.375
lowerback 39.3185 1.43957 0.916491
upperback 13.9193 0.0145521 -0.906657
thorax -3.65243 -0.767437 -1.37938
lowerneck -17.8533 -1.77823 -4.73109
upperneck 20.2664 -2.20952 4.03522
head 9.44193 -0.98277 1.88294
rclavicle -5.1684e-015 1.19271e-014
rhumerus 2.1626 19.3509 -82.414
rradius 60.5444
rwrist 11.503
rhand -31.8793 36.6171
rfingers 7.12502
rthumb -5.13219 6.69924
lclavicle -5.1684e-015 1.19271e-014
lhumerus 7.12736 -33.8647 75.3991
lradius 55.696
lwrist -24.7126
lhand -23.4836 33.6067
lfingers 7.12502
lthumb 2.97612 63.5657
rfemur -51.6608 -7.87982 7.22172
rtibia 65.3887
rfoot 8.35521 -6.53554
rtoes 6.89757
lfemur -49.1917 6.76352 -14.0924
ltibia 60.1437
lfoot 10.0113 2.62536
ltoes 24.1561
137
root 9.2851 13.4819 5.08219 -122.515 -85.8283 104.106
lowerback 39.1348 1.33519 0.967956
upperback 13.8857 -0.0710459 -0.808945
thorax -3.634 -0.805416 -1.27333
lowerneck -17.4677 -1.84598 -4.99683
upperneck 20.6339 -2.26926 4.01296
head 9.50552 -1.04465 1.91493
rclavicle 1.51076e-014 1.31198e-014
rhumerus 2.18753 19.593 -82.3062
rradius 60.1212
rwrist 12.2797
rhand -32.0452 36.7527
rfingers 7.12502
rthumb -5.29239 6.83883
lclavicle 1.51076e-014 1.31198e-014
lhumerus 7.07147 -33.5344 75.8556
lradius 55.1336
lwrist -24.719
lhand -23.9579 33.4183
lfingers 7.12502
lthumb 2.51803 63.3831
rfemur -51.5242 -8.0593 7.33116
rtibia 65.4025
rfoot 8.25925 -6.2428
rtoes 4.59829
lfemur -49.1394 6.45077 -13.7867
ltibia 60.1213
lfoot 9.95231 3.18072
ltoes 27.9499
138
root 9.29361 13.4811 5.08126 -123.134 -85.9377 104.671
lowerback 39.0466 1.35605 0.92515
upperback 13.823 -0.0379987 -0.695795
thorax -3.67468 -0.791194 -1.14365
lowerneck -17.0414 -1.92033 -5.10603
upperneck 21.0295 -2.36193 3.87763
head 9.56996 -1.12406 1.8774
rclavicle -6.36111e-015 -4.37326e-015
rhumerus 2.16999 19.9553 -82.1373
rradius 59.7605
rwrist 12.4892
rhand -31.9974 36.8732
rfingers 7.12502
rthumb -5.24619 6.95813
lclavicle -6.36111e-015 -4.37326e-015
lhumerus 6.92801 -33.0893 76.4126
lradius 54.7721
lwrist -25.3773
lhand -23.8122 33.3344
lfingers 7.12502
lthumb 2.65871 63.2976
rfemur -51.4569 -8.00618 7.43948
rtibia 65.4048
rfoot 8.26522 -6.31235
rtoes 4.61784
lfemur -49.0913 6.46258 -13.6418
ltibia 60.0747
lfoot 10.0286 3.36729
ltoes 28.9633
139
root 9.29412 13.4594 5.07727 -124.023 -85.7605 105.443
lowerback 39.0097 1.55542 0.699649
upperback 13.8292 0.126365 -0.686683
thorax -3.6549 -0.720034 -1.076
lowerneck -17.0427 -2.05548 -5.12395
upperneck 21.8825 -2.58881 3.84295
head 9.883 -1.24655 1.84374
rclavicle 1.39149e-015 1.03368e-014
rhumerus 2.33641 20.1589 -81.8071
rradius 59.4627
rwrist 12.7557
rhand -32.8925 36.9316
rfingers 7.12502
rthumb -6.11043 7.03974
lclavicle 1.39149e-015 1.03368e-014
lhumerus 7.00946 -33.1271 76.5667
lradius 54.6062
lwrist -25.5703
lhand -23.6599 33.122
lfingers 7.12502
lthumb 2.80582 63.0833
rfemur -51.5251 -7.8694 7.3019
rtibia 65.5027
rfoot 8.35487 -5.89493
rtoes 3.09269
lfemur -48.9836 6.79646 -13.9506
ltibia 59.9636
lfoot 10.2055 2.64112
ltoes 24.66
140
root 9.30534 13.46 5.07526 -122.328 -85.5903 103.614
lowerback 38.9856 1.5884 0.583921
upperback 13.8264 0.118596 -0.816376
thorax -3.65235 -0.720994 -1.14999
lowerneck -17.1945 -2.11341 -5.1491
upperneck 22.8611 -2.74272 3.9455
head 10.2718 -1.31982 1.86947
rclavicle 3.77691e-015 -5.56597e-015
rhumerus 2.47817 20.3234 -81.7842
rradius 59.1683
rwrist 13.0058
rhand -34.0998 36.5166
rfingers 7.12502
rthumb -7.27594 6.66166
lclavicle 3.77691e-015 -5.56597e-015
lhumerus 7.19611 -33.3184 76.3133
lradius 54.4467
lwrist -25.5838
lhand -23.9506 32.4412
lfingers 7.12502
lthumb 2.52511 62.406
rfemur -51.4132 -7.92349 7.04264
rtibia 65.5322
rfoot 8.34689 -5.39942
rtoes 1.55151
lfemur -48.8317 6.59194 -13.968
ltibia 59.9737
lfoot 10.1093 3.51449
ltoes 29.6215
141
root 9.31416 13.4655 5.07537 -121.299 -85.7356 102.519
lowerback 38.8801 1.47336 0.799044
upperback 13.8117 0.0622703 -0.861387
thorax -3.63493 -0.734409 -1.28923
lowerneck -17.142 -2.18399 -5.22235
upperneck 23.5353 -2.88208 3.98246
head 10.5157 -1.39737 1.88049
rclavicle 1.2921e-014 -4.77083e-015
rhumerus 2.58704 20.4496 -81.8069
rradius 58.9075
rwrist 12.9204
rhand -34.5378 35.6931
rfingers 7.12502
rthumb -7.69866 5.85324
lclavicle 1.2921e-014 -4.77083e-015
lhumerus 7.37352 -33.4397 76.1588
lradius 54.2586
lwrist -25.975
lhand -24.0926 31.8362
lfingers 7.12502
lthumb 2.38793 61.8026
rfemur -51.3247 -7.94508 7.01879
rtibia 65.6022
rfoot 8.13121 -6.2772
rtoes 7.44733
lfemur -48.7768 6.43751 -13.8677
ltibia 59.9565
lfoot 10.2613 3.94367
ltoes 31.152
142
root 9.32813 13.4764 5.06865 -125.931 -86.032 107.087
lowerback 38.6418 1.53079 0.874042
upperback 13.9141 0.171745 -0.570072
thorax -3.44296 -0.694881 -1.06206
lowerneck -17.1364 -2.28527 -5.60656
upperneck 24.0634 -2.9231 3.87627
head 10.7159 -1.47255 1.90507
rclavicle -1.19271e-014 -7.95139e-016
rhumerus 2.89276 20.8901 -81.3173
rradius 58.6913
rwrist 12.92
rhand -34.4779 35.4248
rfingers 7.12502
rthumb -7.6409 5.58287
lclavicle -1.19271e-014 -7.95139e-016
lhumerus 7.52213 -33.1582 76.376
lradius 54.0642
lwrist -26.3554
lhand -23.4531 31.2819
lfingers 7.12502
lthumb 3.00554 61.2405
rfemur -51.2474 -7.59412 7.42478
rtibia 65.5956
rfoot 7.74648 -7.23919
rtoes 12.3261
lfemur -48.7076 6.49414 -13.2106
ltibia 60.0304
lfoot 10.2487 3.07585
ltoes 29.2791
143
root 9.34158 13.4812 5.06164 -130.706 -86.1429 111.628
lowerback 38.6182 1.65319 0.701438
upperback 13.9958 0.262363 -0.272987
thorax -3.34631 -0.679286 -0.692536
lowerneck -17.1695 -2.36277 -6.13052
upperneck 24.6549 -2.91267 3.84965
head 10.9502 -1.53082 1.98967
rclavicle 5.1684e-015 3.18055e-015
rhumerus 3.10695 21.2439 -81.0777
rradius 58.3795
rwrist 13.3854
rhand -33.9028 36.0237
rfingers 7.12502
rthumb -7.0857 6.1623
lclavicle 5.1684e-015 3.18055e-015
lhumerus 7.54932 -32.7626 76.7002
lradius 53.8466
lwrist -26.5846
lhand -22.8348 31.4056
lfingers 7.12502
lthumb 3.60261 61.3549
rfemur -50.9806 -7.28821 7.7428
rtibia 65.5414
rfoot 7.62537 -7.32794
rtoes 11.9421
lfemur -48.4297 6.58631 -12.6872
ltibia 60.0648
lfoot 10.016 2.72579
ltoes 29.6545
144
root 9.34585 13.4693 5.06614 -130.03 -86.0165 110.707
lowerback 38.661 1.67421 0.596568
upperback 13.9968 0.242146 -0.349571
thorax -3.36037 -0.691403 -0.711463
lowerneck -17.0348 -2.44504 -6.26859
upperneck 25.2172 -3.08697 4.00229
head 11.1492 -1.61908 2.04833
rclavicle -4.37326e-015 1.23246e-014
rhumerus 3.15695 21.0456 -81.53
rradius 57.8891
rwrist 14.0584
rhand -33.3679 36.8761
rfingers 7.12502
rthumb -6.56933 6.99799
lclavicle -4.37326e-015 1.23246e-014
lhumerus 7.62574 -32.8886 76.6289
lradius 53.6643
lwrist -26.6211
lhand -22.5821 32.1704
lfingers 7.12502
lthumb 3.84664 62.1154
rfemur -50.7783 -7.3111 7.55334
rtibia 65.5399
rfoot 7.76346 -7.24777
rtoes 12.9367
lfemur -48.1707 6.64441 -12.9638
ltibia 60.0399
lfoot 9.93467 3.76653
ltoes 32.296
145
root 9.34159 13.4421 5.07455 -126.726 -85.735 107.214
lowerback 38.6107 1.5922 0.414669
upperback 14.0578 0.0461923 -0.649185
thorax -3.28301 -0.783384 -0.864518
lowerneck -16.9857 -2.42766 -6.16675
upperneck 25.7093 -3.19435 4.19815
head 11.3324 -1.64607 2.09159
rclavicle -9.93923e-016 -1.59028e-015
rhumerus 3.45876 20.939 -82.117
rradius 57.3245
rwrist 14.6748
rhand -33.087 37.4205
rfingers 7.12502
rthumb -6.29818 7.53409
lclavicle -9.93923e-016 -1.59028e-015
lhumerus 7.80166 -32.8607 76.1751
lradius 53.4908
lwrist -26.8025
lhand -22.161 32.9033
lfingers 7.12502
lthumb 4.25326 62.8405
rfemur -50.6727 -7.45152 7.10906
rtibia 65.509
rfoot 8.096 -6.50556
rtoes 9.56783
lfemur -48.0566 6.71204 -13.6179
ltibia 60.0297
lfoot 9.99945 4.44013
ltoes 32.722
